<?xml version="1.0" encoding="utf-8"?>
<!-- Generator: Adobe Illustrator 26.3.1, SVG Export Plug-In . SVG Version: 6.00 Build 0)  -->
<svg version="1.1" id="Layer_1" xmlns="http://www.w3.org/2000/svg" xmlns:xlink="http://www.w3.org/1999/xlink" x="0px" y="0px"
	 viewBox="0 0 1080 1080" style="enable-background:new 0 0 1080 1080;" xml:space="preserve">
<style type="text/css">
	.st0{fill:#473B5E;}
</style>
<g>
	<polygon class="st0" points="255.58,528.45 197.71,528.45 197.71,497.73 177.1,497.73 177.1,581.08 197.71,581.08 197.71,548.45 
		255.58,548.45 255.58,581.08 276.18,581.08 276.18,497.73 255.58,497.73 	"/>
	<path class="st0" d="M347.75,563.46h65.14c1.91,0,3.75-0.38,5.54-1.13c1.79-0.75,3.33-1.79,4.64-3.1c1.31-1.31,2.36-2.88,3.16-4.7
		c0.79-1.82,1.19-3.81,1.19-5.95v-36.32c0-1.91-0.38-3.75-1.13-5.54c-0.76-1.79-1.79-3.34-3.1-4.64c-1.31-1.31-2.88-2.36-4.7-3.16
		c-1.83-0.79-3.81-1.19-5.95-1.19h-70.85c-1.91,0-3.75,0.38-5.54,1.13c-1.79,0.76-3.33,1.79-4.64,3.1c-1.31,1.31-2.36,2.88-3.16,4.7
		c-0.79,1.83-1.19,3.81-1.19,5.95v68.47h20.6V563.46z M347.75,517.73h59.06v25.72h-59.06V517.73z"/>
	<path class="st0" d="M477.66,562.27h-4.17l-15.96-64.54h-22.98l18.22,69.66c1.19,4.52,3.29,8.14,6.31,10.84
		c3.02,2.7,7.14,4.05,12.38,4.05h8.22c5.32,0,9.65-1.41,12.98-4.23c3.33-2.82,5.48-6.37,6.43-10.66l3.1-13.58l-12.62-38.94
		L477.66,562.27z"/>
	<path class="st0" d="M579.83,497.73h-22.86l-16.31,64.54h-3.81l-20.13-64.54h-22.86l21.55,69.66c1.27,4.29,3.35,7.84,6.25,10.66
		c2.9,2.82,6.92,4.23,12.09,4.23h7.5c5.48,0,9.74-1.33,12.8-3.99c3.05-2.66,5.22-6.29,6.49-10.9L579.83,497.73z"/>
	<path class="st0" d="M686.41,581.08l-22.98-29.41h8.1c1.91,0,3.75-0.38,5.54-1.13c1.79-0.75,3.33-1.79,4.64-3.1
		c1.31-1.31,2.36-2.88,3.16-4.7c0.79-1.82,1.19-3.81,1.19-5.95v-24.53c0-1.91-0.38-3.75-1.13-5.54c-0.76-1.79-1.79-3.34-3.1-4.64
		c-1.31-1.31-2.88-2.36-4.7-3.16c-1.83-0.79-3.81-1.19-5.95-1.19h-69.66c-1.91,0-3.75,0.38-5.54,1.13c-1.79,0.76-3.33,1.79-4.64,3.1
		c-1.31,1.31-2.36,2.88-3.16,4.7c-0.79,1.83-1.19,3.81-1.19,5.95v68.47h20.6v-63.35h57.87v13.93h-47.99v20.01h20.48l23.7,29.41
		H686.41z"/>
	<path class="st0" d="M901.76,506.72c-0.76-1.79-1.79-3.34-3.1-4.64c-1.31-1.31-2.88-2.36-4.7-3.16c-1.83-0.79-3.81-1.19-5.95-1.19
		h-70.85c-1.91,0-3.75,0.38-5.54,1.13c-1.79,0.76-3.33,1.79-4.64,3.1c-1.31,1.31-2.36,2.88-3.16,4.7c-0.79,1.83-1.19,3.81-1.19,5.95
		v30.84h-68.9l-4.43,20.01h38.4l0,0h22.51l0,0h12.42v17.62h20.6v-17.62h16.91h48.22c1.91,0,3.75-0.38,5.54-1.13
		c1.79-0.75,3.33-1.79,4.64-3.1c1.31-1.31,2.36-2.88,3.16-4.7c0.79-1.82,1.19-3.81,1.19-5.95v-36.32
		C902.9,510.35,902.52,508.5,901.76,506.72z M882.29,543.45h-42.15h-16.91v-25.72h59.06V543.45z"/>
	<polygon class="st0" points="291.39,517.73 291.49,517.73 291.49,561.08 291.39,561.08 291.39,581.08 311.93,581.08 311.93,497.73 
		291.39,497.73 	"/>
	<path class="st0" d="M731.9,517.73H755l3.05,11.08l2.08,7.47h21.95L775,512.61c-1.27-4.29-3.49-7.84-6.67-10.66
		c-3.18-2.82-7.42-4.23-12.74-4.23h-24.89c-5.24,0-9.35,1.41-12.32,4.23c-2.98,2.82-5.1,6.37-6.37,10.66l-20.6,68.47h22.86
		L731.9,517.73z"/>
	<polygon class="st0" points="769.7,570.64 769.97,571.61 772.62,581.08 795.49,581.08 792.36,570.64 	"/>
</g>
</svg>
